<svg width="100" height="51" xmlns="http://www.w3.org/2000/svg"><g fill="none" fill-rule="evenodd"><path d="M67.519 40.888c0-.88-.236-1.73-.707-2.55-.536-.928-1.218-1.401-2.05-1.416h-.943v5.926c.204.317.503.615.895.9.455.313.84.47 1.155.47.613 0 1.06-.416 1.343-1.25.204-.6.307-1.292.307-2.08m2.474.993a5.75 5.75 0 0 1-.778 2.927c-.612 1.025-1.422 1.537-2.427 1.537-1.226 0-2.215-.49-2.97-1.465.017.993-.399 1.488-1.248 1.488-.204 0-.38-.037-.53-.106-.15-.07-.279-.171-.389-.295a1.434 1.434 0 0 1-.259-.438 1.526 1.526 0 0 1-.093-.554V30.074h2.52v4.888h1.248c1.666.015 2.946.788 3.841 2.314.722 1.259 1.085 2.794 1.085 4.605" fill="#F60"/><path d="M6.22 40.162c0-.787-.103-1.48-.306-2.08-.282-.832-.73-1.25-1.344-1.25-.314 0-.698.158-1.155.472-.391.283-.69.582-.895.899v5.926h.943c.833-.015 1.515-.488 2.05-1.416.472-.819.708-1.67.708-2.55m2.473-.993c0 1.812-.361 3.346-1.084 4.605-.895 1.527-2.176 2.299-3.841 2.314H2.52v4.888H0v-14.9a1.448 1.448 0 0 1 .353-.992c.11-.126.24-.226.389-.296.15-.07.326-.106.53-.106.848 0 1.265.495 1.248 1.488.754-.975 1.745-1.464 2.971-1.464 1.004 0 1.814.51 2.425 1.535a5.75 5.75 0 0 1 .778 2.928M15.53 39.408c0-.77-.093-1.44-.276-2.01-.274-.785-.724-1.178-1.348-1.178-.595 0-1.037.4-1.326 1.2-.214.587-.32 1.248-.32 1.988h3.27zm2.559 1.73h-5.807c0 .772.168 1.426.503 1.966.381.646.93.969 1.647.969.44 0 .883-.138 1.325-.417.426-.276.717-.415.868-.415.26 0 .477.085.651.256a.854.854 0 0 1 .263.645c0 .524-.433 1.002-1.302 1.433-.776.368-1.448.554-2.013.554-1.507 0-2.703-.562-3.587-1.686-.808-1.032-1.212-2.325-1.212-3.88 0-1.571.358-2.896 1.074-3.974.838-1.23 1.997-1.846 3.475-1.846 1.524 0 2.636.722 3.337 2.171.518 1.077.778 2.485.778 4.225zM22.255 31.59c0 .366-.136.683-.408.95-.273.266-.603.4-.988.4-.375 0-.697-.125-.97-.38a1.395 1.395 0 0 1-.387-.97c0-.38.13-.696.387-.949.273-.28.595-.422.97-.422.385 0 .715.142.988.422.272.268.408.583.408.95M22.159 44.498c0 .436-.103.817-.307 1.144a1.13 1.13 0 0 1-1.013.561c-.425 0-.755-.187-.991-.561-.19-.327-.283-.716-.283-1.169v-9.787h2.594v9.812zM32.017 45.39a.908.908 0 0 1-.096.41 1.132 1.132 0 0 1-.24.323 1.15 1.15 0 0 1-.358.215 1.168 1.168 0 0 1-.432.084c-.511 0-.895-.24-1.15-.72l-2.012-3.625-2.274 4.033H23.37l3.328-5.808-3.042-5.546h2.659l1.796 3.36 1.63-2.88c.254-.416.574-.625.958-.625.239 0 .446.081.623.24a.788.788 0 0 1 .262.6.98.98 0 0 1-.167.53l-2.275 3.913 2.706 4.872c.112.21.168.416.168.624M38.867 39.389c0-.765-.092-1.434-.275-2-.276-.784-.727-1.174-1.355-1.174-.597 0-1.041.399-1.331 1.196-.215.584-.322 1.241-.322 1.978h3.283zm2.571 1.727h-5.83c0 .768.167 1.418.504 1.955.383.646.934.966 1.653.966.444 0 .888-.138 1.331-.413.429-.276.72-.414.874-.414.26 0 .477.084.654.253a.856.856 0 0 1 .264.644c0 .522-.436.998-1.309 1.428-.78.366-1.454.551-2.02.551-1.516 0-2.717-.56-3.605-1.68-.812-1.027-1.216-2.316-1.216-3.866 0-1.564.358-2.882 1.078-3.957.842-1.228 2.005-1.84 3.49-1.84 1.53 0 2.647.722 3.352 2.162.52 1.073.78 2.478.78 4.21z" fill="#003568"/><path d="M51.193 35.983v8.702c0 .412-.111.76-.335 1.045a1.21 1.21 0 0 1-.983.473c-.864 0-1.296-.505-1.296-1.518-.766.965-1.693 1.448-2.78 1.448-.926 0-1.664-.348-2.206-1.044-.481-.633-.72-1.44-.72-2.417v-7.97l2.615.024v7.612c0 1.107.415 1.66 1.245 1.66.56 0 1.176-.498 1.846-1.493v-6.522c0-.411.114-.752.337-1.02.24-.299.56-.45.96-.45.19 0 .37.04.538.118.168.08.308.187.42.32.113.134.2.288.264.462.064.174.095.364.095.57M60.227 35.919c0 .677-.534 1.018-1.603 1.018h-.192c-.08 0-.167-.01-.263-.026h-.383c-.686 0-1.276.308-1.771.923-.462.585-.694 1.223-.694 1.918v6.365h-2.608v-10.01c0-.394.12-.725.359-.995.24-.266.558-.4.958-.4.861 0 1.291.568 1.291 1.704.846-1.073 1.939-1.611 3.279-1.611.414 0 .774.088 1.078.262.365.187.549.473.549.852M76.862 42.504V36.69h-.693c-.795 0-1.431.497-1.908 1.488a5.536 5.536 0 0 0-.596 2.528c0 2.191.452 3.285 1.36 3.285.572 0 1.183-.495 1.837-1.487zm2.6 2.244c0 .394-.112.724-.333.991a1.261 1.261 0 0 1-.956.403c-.859 0-1.288-.487-1.288-1.465-.78.96-1.71 1.441-2.791 1.441-.987 0-1.742-.512-2.267-1.536-.429-.82-.644-1.772-.644-2.859 0-1.797.326-3.331.978-4.606.827-1.607 2.068-2.412 3.721-2.412h3.58v10.043zM89.227 46.106H86.7l.023-6.23c0-2.022-.449-3.031-1.347-3.031-.755 0-1.362.493-1.819 1.48v7.781h-2.574v-9.99c0-.392.118-.725.355-1 .236-.274.544-.41.921-.41.867 0 1.298.493 1.298 1.48.741-.94 1.638-1.41 2.694-1.41.992 0 1.763.501 2.315 1.505.44.814.661 1.763.661 2.842v6.983zM97.011 40.428c0-2.755-.642-4.133-1.928-4.133-1.238 0-1.858 1.37-1.858 4.11 0 2.71.635 4.064 1.905 4.064 1.253 0 1.881-1.348 1.881-4.041m2.785-.068c0 1.43-.396 2.708-1.19 3.834-.92 1.264-2.087 1.897-3.5 1.897-1.413 0-2.563-.627-3.452-1.873a6.445 6.445 0 0 1-1.213-3.813c0-1.447.404-2.726 1.213-3.836.905-1.248 2.08-1.872 3.525-1.872 1.38 0 2.522.632 3.427 1.895.794 1.11 1.19 2.366 1.19 3.768M74.492 17.862L89.607 5.5 72.39 9.37l-2.718-.393-2.833 15.548 3.57-.295 9.58 5.732zM27.796 15.476a1.692 1.692 0 0 1-1.686-1.7c0-.938.754-1.7 1.686-1.7.932 0 1.687.762 1.687 1.7 0 .939-.755 1.7-1.687 1.7zm6.505-9.912S19.693 8.276 19.693 16.648c0 7.417 14.795 8.69 14.795 8.69L34.3 5.564z" fill="#F60"/><path d="M28.234 13.48a.735.735 0 0 1-.731.739.736.736 0 0 1-.733-.739c0-.409.329-.74.733-.74.404 0 .731.331.731.74" fill="#003568"/><path d="M65.387 13.753h1.162v-1.575h-1.162v1.575zm-3.031-2.086h1.162V10.09h-1.162v1.576zm-1.12-4.097l-.207 15.729 4.633.929 2.833-15.549-7.26-1.11z" fill="#006ACB"/><path d="M57.195 12.182h1.163v-1.575h-1.163v1.575zm-.69 6.755h1.162v-1.575h-1.161v1.575zm-1.674-3.377h1.161v-1.575h-1.161v1.575zm-.666-5.465h1.163V8.52h-1.163v1.575zm-1.068-7.747l.193 25.083 6.536-1.6.27-21.536-7-1.947z" fill="#004382"/><path d="M49.113 5.823h1.162V4.248h-1.162v1.575zm-.493 5.664h1.16V9.91h-1.16v1.576zm0 4.669h1.16V14.58h-1.16v1.575zm-2.66-1.49h1.16v-1.575h-1.16v1.575zm-.592-3.875h1.162V9.216h-1.162v1.575zm-.099-5.564h1.162V3.65H45.27v1.576zM51.9 0l-8.375 1.435.11 27.417 8.489-.142L51.899 0z" fill="#003568"/><path d="M39.358 15.858h1.162v-1.575h-1.162v1.575zm-2.167-3.577h1.162v-1.575H37.19v1.575zm5.171-9.923l-6.89 2.413.203 20.77 6.779 2.423-.092-25.606z" fill="#006ACB"/></g></svg>